# xmcd
#
# Track frame offsets:
#	150
#	19803
#	31122
#	50324
#	67855
#	89097
#	106502
#	128726
#	145061
#	162046
#	180217
#	197251
#	218806
#	235756
#	254123
#	266533
#	279489
#
# Disc length: 4313
#
# Revision: 2
# Processed by: cddbd v1.5.1PL0 Copyright (c) Steve Scherf et al.
# Submitted via: audiograbber 1.81.03
# Normalized: r1:DSETVAR1
#
DISCID=db10d711
DTITLE=Various Artist - New Sounds Of The Old West (Volume Two)
DYEAR=2000
DGENRE=Country
TTITLE0=Lambchop - Beyond Belief
TTITLE1=Pernice Brothers - Square World
TTITLE2=Pete Krebs - Dressed To The 9's
TTITLE3=Chris Mills - Tooth And Nail
TTITLE4=Jim White - 10 Miles To Go On A 9 Mile Road
TTITLE5=Josh Rouse - Me Gusta Dormir
TTITLE6=Peter Bruntnell - Darling I Suppose
TTITLE7=Mary Lou Lord - Sunspot Stopwatch
TTITLE8=The Cash Brothers - Nebraska
TTITLE9=D Braxton Harris - Halogen
TTITLE10=The Handsome Family - So Much Wine
TTITLE11=Giant Sand - Astonished (In Memphis)
TTITLE12=Damien Jurado - Chevrolet
TTITLE13=Willard Grant Conspiracy - Angie Says
TTITLE14=Hayden - Stride
TTITLE15=Richard Buckner - The Last Ride
TTITLE16=Calexico - Tripple T
EXTD=
EXTT0=
EXTT1=
EXTT2=
EXTT3=
EXTT4=
EXTT5=
EXTT6=
EXTT7=
EXTT8=
EXTT9=
EXTT10=
EXTT11=
EXTT12=
EXTT13=
EXTT14=
EXTT15=
EXTT16=
PLAYORDER=
